<svg width="29" height="20" viewBox="0 0 29 20" fill="none" xmlns="http://www.w3.org/2000/svg">
<path d="M4.30797 19H16.8907C17.7689 19 18.6112 18.6512 19.2321 18.0302C19.8532 17.4093 20.2019 16.5669 20.2019 15.6888V14.3048L26.2018 16.7748C26.6104 16.9427 27.0758 16.8958 27.4426 16.6501C27.8093 16.4041 28.0297 15.9913 28.0297 15.5497V4.45351C28.0301 4.01097 27.8093 3.5975 27.4416 3.35128C27.0739 3.10529 26.6074 3.0591 26.1986 3.22841L20.2052 5.69522V4.31124C20.2052 3.43305 19.8562 2.5907 19.2354 1.96984C18.6143 1.34874 17.7722 1 16.894 1H4.31124C3.43305 1 2.5907 1.34877 1.96984 1.96984C1.34874 2.5907 1 3.43305 1 4.31124V15.6883C1 16.566 1.34831 17.4077 1.96872 18.0285C2.58886 18.6494 3.43033 18.9986 4.30781 18.9996L4.30797 19ZM26.7056 4.4536V15.5498L20.2055 12.8777V7.13269L26.7056 4.4536ZM2.32477 4.31132C2.32477 3.78423 2.53403 3.2791 2.90683 2.90652C3.27939 2.53373 3.78454 2.32447 4.31162 2.32447H16.8943C17.4212 2.32447 17.9266 2.53373 18.2991 2.90652C18.6717 3.27909 18.881 3.78424 18.881 4.31132V15.6884C18.881 16.2155 18.6717 16.7206 18.2991 17.0932C17.9266 17.466 17.4212 17.6752 16.8943 17.6752H4.31162C3.78454 17.6752 3.2794 17.466 2.90683 17.0932C2.53403 16.7206 2.32477 16.2155 2.32477 15.6884V4.31132Z" fill="#3896F3" stroke="#3896F3" stroke-width="0.2"/>
</svg>
